<?xml version="1.0" standalone="no"?>
<!DOCTYPE svg PUBLIC "-//W3C//DTD SVG 20010904//EN"
 "http://www.w3.org/TR/2001/REC-SVG-20010904/DTD/svg10.dtd">
<svg version="1.0" xmlns="http://www.w3.org/2000/svg"
 width="113.000000pt" height="113.000000pt" viewBox="0 0 113.000000 113.000000"
 preserveAspectRatio="xMidYMid meet">
<metadata>
Created by potrace 1.14, written by Peter Selinger 2001-2017
</metadata>
<g transform="translate(0.000000,113.000000) scale(0.100000,-0.100000)"
fill="#000000" stroke="none">
<path d="M455 970 c-3 -5 -1 -10 4 -10 6 0 11 5 11 10 0 6 -2 10 -4 10 -3 0
-8 -4 -11 -10z"/>
<path d="M448 934 c9 -7 19 -9 22 -6 3 4 9 10 13 13 4 3 -6 6 -23 6 -26 0 -27
-2 -12 -13z"/>
<path d="M297 918 c-38 -10 -49 -28 -51 -86 -1 -15 -12 -33 -28 -45 -23 -17
-32 -18 -66 -10 -47 12 -53 9 -81 -37 -27 -46 -27 -66 4 -94 16 -15 25 -34 25
-52 0 -36 -7 -46 -47 -69 -36 -21 -39 -37 -22 -97 10 -39 19 -44 83 -50 18 -2
37 -13 49 -29 17 -23 18 -32 8 -61 -15 -46 -7 -65 40 -88 49 -26 52 -25 91 9
37 31 85 33 103 4 6 -9 19 -27 31 -41 20 -25 22 -25 68 -12 51 14 66 32 66 79
0 34 32 73 52 66 7 -2 27 -6 43 -8 17 -3 42 -8 58 -12 18 -5 27 -3 27 5 0 6
-4 9 -9 6 -5 -3 -14 1 -20 8 -10 12 -9 14 6 12 10 -2 24 -14 30 -27 10 -18 13
-20 13 -6 0 15 6 19 26 16 4 0 10 4 13 9 4 7 13 5 25 -4 11 -7 17 -17 13 -20
-4 -4 -13 -2 -20 4 -10 9 -17 8 -27 -1 -10 -10 -11 -9 -5 2 6 10 4 12 -4 6
-19 -11 2 -26 40 -28 19 -2 40 -6 47 -10 19 -12 14 1 -9 24 -11 11 -18 24 -14
27 3 4 10 0 15 -8 6 -8 10 -10 10 -5 0 6 5 3 10 -5 6 -10 10 -11 10 -3 0 7
-35 28 -77 48 -52 24 -73 39 -65 44 15 9 60 3 68 -10 3 -5 12 -9 19 -9 8 0 38
-11 67 -24 114 -52 171 -76 174 -73 1 1 -26 17 -62 36 -35 18 -62 37 -59 41 3
5 1 11 -5 15 -5 3 -10 2 -10 -4 0 -5 -13 -3 -30 5 -16 9 -30 20 -30 25 0 6 9
5 23 -1 21 -11 21 -10 3 4 -15 12 -22 13 -34 4 -11 -10 -13 -8 -10 7 1 11 -2
20 -9 20 -6 0 -23 10 -36 22 -41 35 -73 54 -81 46 -4 -4 -4 1 0 10 6 15 2 17
-22 12 -16 -3 -22 -2 -14 2 8 5 15 14 16 21 3 34 6 34 25 2 14 -26 18 -28 13
-10 -6 22 -5 23 9 11 9 -7 14 -18 10 -24 -3 -6 -1 -7 6 -3 6 4 23 0 36 -8 44
-29 27 -8 -20 24 -44 31 -44 31 -25 50 21 21 20 47 -4 100 -9 20 -20 26 -58
30 -55 6 -91 41 -77 75 18 48 10 74 -31 100 -50 31 -58 31 -97 -4 -40 -35 -86
-32 -110 8 -33 52 -43 56 -106 39z m488 -468 c3 -5 1 -10 -4 -10 -6 0 -11 5
-11 10 0 6 2 10 4 10 3 0 8 -4 11 -10z m-3 -34 c32 -17 56 -32 54 -34 -6 -5
-99 40 -116 57 -17 17 -12 15 62 -23z m52 -1 c10 -8 23 -12 29 -8 6 3 7 1 3
-6 -4 -6 -12 -9 -17 -6 -5 4 -21 13 -37 21 -15 7 -20 14 -12 14 8 -1 24 -7 34
-15z m-50 -84 c3 -5 -1 -11 -9 -15 -8 -3 -17 0 -21 6 -4 7 -3 8 4 4 7 -4 12
-2 12 3 0 13 7 14 14 2z"/>
<path d="M857 645 c-7 -16 -10 -17 -17 -5 -15 24 -11 5 5 -26 8 -16 15 -42 16
-59 0 -16 3 -25 5 -18 3 7 13 9 22 6 15 -6 15 -5 2 11 -8 10 -17 39 -20 65 -4
35 -7 41 -13 26z"/>
<path d="M5 609 c-4 -6 -4 -13 -1 -16 3 -4 6 -1 6 5 0 7 4 12 10 12 5 0 7 -8
4 -17 -5 -15 -4 -15 4 -3 11 15 7 30 -8 30 -5 0 -12 -5 -15 -11z"/>
<path d="M40 309 c0 -17 27 -39 47 -38 15 0 14 2 -4 9 -13 5 -23 16 -23 25 0
8 -4 15 -10 15 -5 0 -10 -5 -10 -11z"/>
<path d="M10 280 c-12 -8 -10 -10 8 -10 15 0 22 -6 22 -20 0 -11 5 -20 10 -20
16 0 12 26 -8 43 -12 11 -22 13 -32 7z"/>
<path d="M633 255 c0 -8 4 -12 9 -9 5 3 6 10 3 15 -9 13 -12 11 -12 -6z"/>
</g>
</svg>
