<svg width="23" height="26" viewBox="0 0 23 26" fill="none" xmlns="http://www.w3.org/2000/svg">
	<path d="M19.5205 12.5044L10.4492 0.458257C10.3091 0.273533 10.4356 0 10.6646 0H13.3067C13.4741 0 13.6348 0.081705 13.7373 0.216696L22.4634 11.8046C22.6145 12.0047 22.6967 12.2518 22.6967 12.5062C22.6967 12.7606 22.6145 13.0076 22.4634 13.2078L13.7373 24.7921C13.6348 24.9306 13.4741 25.0088 13.3067 25.0088H10.6646C10.4356 25.0088 10.3091 24.7352 10.4492 24.5505L19.5205 12.5044ZM9.1299 12.5044L0.0586071 0.458257C-0.0815296 0.273533 0.0449352 0 0.273939 0H2.91603C3.08351 0 3.24416 0.081705 3.34669 0.216696L12.0728 11.8046C12.2239 12.0047 12.306 12.2518 12.306 12.5062C12.306 12.7606 12.2239 13.0076 12.0728 13.2078L3.34669 24.7921C3.24416 24.9306 3.08351 25.0088 2.91603 25.0088H0.273939C0.0449352 25.0088 -0.0815296 24.7352 0.0586071 24.5505L9.1299 12.5044Z" fill="white"/>
</svg>
