<svg width="26" height="26" viewBox="0 0 26 26" fill="none" xmlns="http://www.w3.org/2000/svg">
<g clip-path="url(#clip0_19_22)">
<path d="M13 26C13 26 22.75 16.7603 22.75 9.75C22.75 7.16414 21.7228 4.68419 19.8943 2.85571C18.0658 1.02723 15.5859 0 13 0C10.4141 0 7.93419 1.02723 6.10571 2.85571C4.27723 4.68419 3.25 7.16414 3.25 9.75C3.25 16.7603 13 26 13 26ZM13 14.625C11.7071 14.625 10.4671 14.1114 9.55285 13.1971C8.63861 12.2829 8.125 11.0429 8.125 9.75C8.125 8.45707 8.63861 7.21709 9.55285 6.30285C10.4671 5.38861 11.7071 4.875 13 4.875C14.2929 4.875 15.5329 5.38861 16.4471 6.30285C17.3614 7.21709 17.875 8.45707 17.875 9.75C17.875 11.0429 17.3614 12.2829 16.4471 13.1971C15.5329 14.1114 14.2929 14.625 13 14.625Z" fill="url(#paint0_linear_19_22)"/>
</g>
<defs>
<linearGradient id="paint0_linear_19_22" x1="22.75" y1="12.3158" x2="3.25" y2="12.3158" gradientUnits="userSpaceOnUse">
<stop stop-color="#FD1283"/>
<stop offset="1" stop-color="#7884FE"/>
</linearGradient>
<clipPath id="clip0_19_22">
<rect width="26" height="26" fill="white"/>
</clipPath>
</defs>
</svg>
