<svg width="26" height="33" viewBox="0 0 26 33" fill="none" xmlns="http://www.w3.org/2000/svg">
<path fill-rule="evenodd" clip-rule="evenodd" d="M24 13C24 17.0467 21.2238 21.3139 18.0259 24.8018C16.4741 26.4942 14.9159 27.9037 13.7432 28.891C13.4709 29.1202 13.2202 29.326 12.9962 29.5066C12.7731 29.3278 12.5237 29.1242 12.2529 28.8974C11.0808 27.9158 9.52339 26.5133 7.97252 24.826C4.7783 21.3506 2 17.0826 2 13C2 6.92487 6.92487 2 13 2C19.0751 2 24 6.92487 24 13ZM26 13C26 22.7024 13 32.03 13 32.03C13 32.03 0 22.7716 0 13C0 5.8203 5.8203 0 13 0C20.1797 0 26 5.8203 26 13ZM16.4983 12.6386C16.4983 14.5712 14.9316 16.1379 12.999 16.1379C11.0665 16.1379 9.4998 14.5712 9.4998 12.6386C9.4998 10.7061 11.0665 9.13942 12.999 9.13942C14.9316 9.13942 16.4983 10.7061 16.4983 12.6386ZM18.4983 12.6386C18.4983 15.6758 16.0362 18.1379 12.999 18.1379C9.96189 18.1379 7.4998 15.6758 7.4998 12.6386C7.4998 9.6015 9.96189 7.13942 12.999 7.13942C16.0362 7.13942 18.4983 9.6015 18.4983 12.6386Z" fill="url(#paint0_linear_19_281)"/>
<defs>
<linearGradient id="paint0_linear_19_281" x1="-1.81313e-07" y1="16.048" x2="26" y2="16.048" gradientUnits="userSpaceOnUse">
<stop stop-color="#6F7DFF"/>
<stop offset="1" stop-color="#FF007A"/>
</linearGradient>
</defs>
</svg>
