<svg width="32" height="32" viewBox="0 0 32 32" fill="none" xmlns="http://www.w3.org/2000/svg">
<path d="M24 13H22C21.9992 12.2046 21.6829 11.442 21.1204 10.8796C20.558 10.3171 19.7954 10.0008 19 10V8C20.3256 8.00159 21.5964 8.52888 22.5338 9.46622C23.4711 10.4036 23.9984 11.6744 24 13Z" fill="url(#paint0_linear_19_284)"/>
<path d="M28 13H26C25.9979 11.1441 25.2597 9.36489 23.9474 8.05259C22.6351 6.7403 20.8558 6.00212 19 6V4C21.3861 4.00265 23.6738 4.95171 25.361 6.63896C27.0483 8.32622 27.9973 10.6139 28 13ZM26 29H25.83C6.17998 27.87 3.38997 11.29 2.99997 6.23C2.93902 5.43675 3.19566 4.65177 3.71344 4.04772C4.23122 3.44368 4.96773 3.07004 5.76097 3.009C5.84031 3.003 5.91997 3 5.99997 3H11.27C11.6705 2.99961 12.062 3.11951 12.3936 3.34416C12.7252 3.56881 12.9818 3.88787 13.13 4.26L14.65 8C14.7963 8.36355 14.8326 8.76208 14.7544 9.14609C14.6762 9.5301 14.4869 9.88267 14.21 10.16L12.08 12.31C12.4113 14.2013 13.3164 15.945 14.6723 17.3045C16.0283 18.664 17.7695 19.5737 19.66 19.91L21.83 17.76C22.1115 17.4862 22.4674 17.3013 22.8533 17.2283C23.2392 17.1554 23.638 17.1977 24 17.35L27.77 18.86C28.1365 19.0129 28.4492 19.2714 28.6683 19.6027C28.8873 19.9339 29.0028 20.3229 29 20.72V26C29 26.7956 28.6839 27.5587 28.1213 28.1213C27.5587 28.6839 26.7956 29 26 29ZM5.99997 5C5.86865 4.99961 5.73854 5.02508 5.61706 5.07497C5.49559 5.12486 5.38512 5.19819 5.29199 5.29077C5.19885 5.38335 5.12486 5.49337 5.07424 5.61455C5.02362 5.73572 4.99737 5.86568 4.99697 5.997C4.99697 6.025 4.99797 6.05267 4.99997 6.08C5.45997 12 8.40998 26 25.94 27C26.2046 27.0159 26.4648 26.926 26.6632 26.7501C26.8616 26.5742 26.982 26.3267 26.998 26.062L27 26V20.72L23.23 19.21L20.36 22.06L19.88 22C11.18 20.91 9.99997 12.21 9.99997 12.12L9.93997 11.64L12.78 8.77L11.28 5H5.99997Z" fill="url(#paint1_linear_19_284)"/>
<defs>
<linearGradient id="paint0_linear_19_284" x1="19" y1="10.5052" x2="24" y2="10.5052" gradientUnits="userSpaceOnUse">
<stop stop-color="#6F7DFF"/>
<stop offset="1" stop-color="#FF007A"/>
</linearGradient>
<linearGradient id="paint1_linear_19_284" x1="2.99115" y1="16.0268" x2="29" y2="16.0268" gradientUnits="userSpaceOnUse">
<stop stop-color="#6F7DFF"/>
<stop offset="1" stop-color="#FF007A"/>
</linearGradient>
</defs>
</svg>
